<svg xmlns="http://www.w3.org/2000/svg" width="768" height="1024" viewBox="0 0 768 1024" role="img" aria-labelledby="title desc">
  <title id="title">Channel rail lo-fi tablet</title>
  <desc id="desc">Rejected tablet wireframe with a narrow persistent channel rail that compresses the family conversation.</desc>
  <rect width="768" height="1024" fill="#eef1ef"/>
  <rect x="24" y="24" width="720" height="976" rx="22" fill="#fff" stroke="#283433" stroke-width="4"/>
  <rect x="24" y="24" width="190" height="976" rx="22" fill="#d9dfdd" stroke="#283433" stroke-width="4"/>
  <text x="50" y="72" font-family="sans-serif" font-size="20" font-weight="700">Family chat</text>
  <text x="50" y="118" font-family="sans-serif" font-size="14" font-weight="700">Channels</text>
  <rect x="46" y="138" width="146" height="50" rx="10" fill="#fff" stroke="#283433" stroke-width="2"/>
  <text x="66" y="170" font-family="sans-serif" font-size="16"># Main</text>
  <text x="244" y="70" font-family="sans-serif" font-size="22" font-weight="700">Main</text>
  <rect x="570" y="44" width="146" height="40" rx="20" fill="#fff" stroke="#283433" stroke-width="2"/>
  <text x="591" y="69" font-family="sans-serif" font-size="14">Notifications</text>
  <line x1="214" y1="110" x2="744" y2="110" stroke="#283433" stroke-width="3"/>
  <rect x="244" y="168" width="330" height="80" rx="18" fill="#f2f3f3" stroke="#596362" stroke-width="2"/>
  <text x="264" y="196" font-family="sans-serif" font-size="13" font-weight="700">Sam · 18:03</text>
  <text x="264" y="226" font-family="sans-serif" font-size="17">Dinner is ready.</text>
  <rect x="382" y="278" width="334" height="80" rx="18" fill="#596362"/>
  <text x="402" y="306" font-family="sans-serif" font-size="13" fill="#fff" font-weight="700">You · 18:04</text>
  <text x="402" y="336" font-family="sans-serif" font-size="17" fill="#fff">On my way!</text>
  <line x1="214" y1="836" x2="744" y2="836" stroke="#283433" stroke-width="3"/>
  <rect x="244" y="880" width="338" height="70" rx="10" fill="#fff" stroke="#283433" stroke-width="3"/>
  <rect x="596" y="880" width="120" height="70" rx="10" fill="#fff" stroke="#283433" stroke-width="3"/>
  <text x="634" y="922" font-family="sans-serif" font-size="16" font-weight="700">Send</text>
</svg>
